<mxfile host="65bd71144e">
    <diagram id="Arc4ogIowIGUsgii-4Sn" name="ページ1">
        <mxGraphModel dx="746" dy="419" grid="0" gridSize="10" guides="1" tooltips="1" connect="1" arrows="1" fold="1" page="1" pageScale="1" pageWidth="400" pageHeight="400" background="#ffffff" math="1" shadow="0">
            <root>
                <mxCell id="0"/>
                <mxCell id="1" parent="0"/>
                <mxCell id="2" value="" style="endArrow=classic;html=1;strokeColor=#000000;" edge="1" parent="1">
                    <mxGeometry width="50" height="50" relative="1" as="geometry">
                        <mxPoint x="40" y="199" as="sourcePoint"/>
                        <mxPoint x="340" y="199" as="targetPoint"/>
                    </mxGeometry>
                </mxCell>
                <mxCell id="3" value="" style="endArrow=classic;html=1;strokeColor=#000000;" edge="1" parent="1">
                    <mxGeometry width="50" height="50" relative="1" as="geometry">
                        <mxPoint x="80" y="320" as="sourcePoint"/>
                        <mxPoint x="80" y="40" as="targetPoint"/>
                    </mxGeometry>
                </mxCell>
                <mxCell id="4" value="`A`" style="text;html=1;strokeColor=none;fillColor=none;align=center;verticalAlign=middle;whiteSpace=wrap;rounded=0;fontColor=#000000;fontSize=16;" vertex="1" parent="1">
                    <mxGeometry x="330" y="185" width="60" height="30" as="geometry"/>
                </mxCell>
                <mxCell id="5" value="`F`" style="text;html=1;strokeColor=none;fillColor=none;align=center;verticalAlign=middle;whiteSpace=wrap;rounded=0;fontColor=#000000;fontSize=16;" vertex="1" parent="1">
                    <mxGeometry x="50" y="10" width="60" height="30" as="geometry"/>
                </mxCell>
                <mxCell id="7" value="`O`" style="text;html=1;strokeColor=none;fillColor=none;align=center;verticalAlign=middle;whiteSpace=wrap;rounded=0;fontColor=#000000;fontSize=16;" vertex="1" parent="1">
                    <mxGeometry x="30" y="200" width="60" height="30" as="geometry"/>
                </mxCell>
                <mxCell id="10" value="`A_\infty`" style="text;html=1;strokeColor=none;fillColor=none;align=center;verticalAlign=middle;whiteSpace=wrap;rounded=0;fontColor=#000000;fontSize=16;" vertex="1" parent="1">
                    <mxGeometry x="170" y="215" width="60" height="30" as="geometry"/>
                </mxCell>
                <mxCell id="11" value="" style="endArrow=none;html=1;strokeColor=#000000;fontSize=16;fontColor=#000000;curved=1;" edge="1" parent="1">
                    <mxGeometry width="50" height="50" relative="1" as="geometry">
                        <mxPoint x="106" y="71" as="sourcePoint"/>
                        <mxPoint x="326" y="271" as="targetPoint"/>
                        <Array as="points">
                            <mxPoint x="176" y="221"/>
                        </Array>
                    </mxGeometry>
                </mxCell>
                <mxCell id="13" value="" style="endArrow=none;html=1;strokeColor=#000000;fontSize=16;fontColor=#000000;curved=1;" edge="1" parent="1">
                    <mxGeometry width="50" height="50" relative="1" as="geometry">
                        <mxPoint x="200" y="215" as="sourcePoint"/>
                        <mxPoint x="200" y="185" as="targetPoint"/>
                    </mxGeometry>
                </mxCell>
                <mxCell id="14" value="" style="endArrow=none;html=1;strokeColor=#FF0000;fontSize=16;fontColor=#000000;curved=1;fillColor=#a20025;" edge="1" parent="1">
                    <mxGeometry width="50" height="50" relative="1" as="geometry">
                        <mxPoint x="117" y="131" as="sourcePoint"/>
                        <mxPoint x="307" y="291" as="targetPoint"/>
                    </mxGeometry>
                </mxCell>
            </root>
        </mxGraphModel>
    </diagram>
</mxfile>